<?xml version="1.0" standalone="no"?>
<!DOCTYPE svg PUBLIC "-//W3C//DTD SVG 20010904//EN"
 "http://www.w3.org/TR/2001/REC-SVG-20010904/DTD/svg10.dtd">
<svg version="1.0" xmlns="http://www.w3.org/2000/svg"
 width="280.000000pt" height="934.000000pt" viewBox="0 0 1280.000000 934.000000"
 preserveAspectRatio="xMidYMid meet">
<g transform="translate(0.000000,934.000000) scale(0.100000,-0.100000)"
fill="#FFF" stroke="none">
<path d="M8046 9330 c-161 -29 -277 -104 -334 -217 -79 -154 -39 -402 99 -610
25 -39 25 -39 -43 -14 -173 64 -421 122 -648 153 -142 19 -536 16 -690 -6
-479 -66 -902 -232 -1249 -491 -506 -378 -819 -895 -901 -1490 -15 -113 -13
-403 4 -526 88 -621 466 -1144 1021 -1413 618 -300 1367 -229 1890 179 273
213 454 485 537 805 40 151 50 391 24 546 -47 273 -168 506 -361 693 -226 218
-490 332 -805 347 -368 18 -699 -119 -936 -388 -122 -139 -192 -291 -215 -465
-21 -167 27 -352 132 -507 74 -109 289 -339 289 -309 0 14 -68 108 -162 224
-132 163 -179 261 -198 415 -47 367 258 754 690 878 290 83 624 39 879 -115
276 -168 458 -426 528 -749 25 -118 25 -362 0 -480 -120 -556 -566 -969 -1179
-1092 -96 -19 -144 -22 -318 -22 -174 0 -221 4 -310 23 -359 77 -645 233 -891
488 -562 582 -625 1510 -152 2228 363 550 972 909 1679 991 192 22 547 15 724
-15 552 -94 1046 -352 1430 -747 191 -196 329 -387 445 -614 387 -762 405
-1626 51 -2430 -196 -444 -561 -900 -971 -1211 -245 -186 -751 -421 -1300
-604 -1003 -333 -2142 -522 -3163 -526 l-252 -1 -64 30 c-335 157 -515 469
-452 782 47 228 203 398 432 466 94 28 239 24 338 -10 175 -60 288 -176 332
-339 47 -178 -38 -368 -204 -449 -63 -31 -73 -33 -172 -33 -123 0 -170 17
-244 85 -154 142 -127 377 54 459 84 38 190 23 259 -35 47 -41 71 -89 71 -142
0 -51 -12 -84 -51 -136 l-31 -41 41 44 c65 69 75 145 31 232 -40 78 -120 122
-225 122 -84 1 -144 -23 -198 -77 -64 -63 -82 -109 -82 -206 0 -73 4 -93 28
-141 138 -282 578 -264 726 29 142 281 -53 625 -394 697 -39 8 -90 15 -115 15
l-45 0 52 35 c87 58 117 136 72 184 -28 30 -79 51 -125 51 -33 0 -36 -2 -29
-22 27 -91 23 -141 -20 -213 -20 -36 -29 -41 -81 -53 -179 -41 -353 -178 -433
-342 -56 -116 -74 -194 -74 -315 0 -252 121 -466 359 -636 24 -18 44 -33 44
-35 0 -4 -175 7 -355 22 -713 60 -1345 203 -1928 436 -278 111 -619 283 -840
425 -44 28 -67 38 -67 29 0 -8 54 -49 121 -91 711 -451 1599 -747 2624 -874
412 -51 741 -71 1210 -71 603 0 1088 34 1651 116 98 14 196 28 216 31 34 5 43
1 94 -43 276 -235 342 -647 164 -1006 -160 -322 -515 -576 -899 -644 -110 -19
-294 -19 -393 0 -421 82 -656 411 -544 763 97 303 444 530 780 510 169 -10
308 -76 386 -184 56 -78 73 -138 68 -232 -12 -202 -184 -378 -418 -427 -224
-47 -425 72 -424 252 1 153 130 275 324 304 72 11 103 20 64 20 -57 -1 -165
-24 -211 -45 -67 -30 -148 -106 -179 -167 -111 -219 86 -439 371 -415 316 27
568 299 525 565 -28 167 -179 311 -376 358 -98 23 -302 15 -399 -16 -254 -81
-452 -243 -550 -452 -231 -492 200 -969 843 -935 525 28 1029 377 1193 828 47
129 61 210 61 349 1 249 -61 420 -211 582 -35 38 -62 70 -60 72 2 1 49 11 104
20 236 43 587 126 850 201 398 114 730 239 1014 382 221 111 256 119 531 110
584 -17 1148 -268 1497 -665 142 -162 260 -363 322 -548 53 -160 66 -243 65
-419 -1 -138 -5 -173 -27 -258 -114 -430 -474 -730 -956 -798 -104 -15 -329
-7 -431 15 -405 88 -726 325 -881 651 -68 144 -84 214 -83 370 0 114 3 139 26
206 85 243 279 410 541 465 107 23 278 20 385 -6 238 -59 437 -206 540 -398
52 -97 72 -175 72 -273 0 -187 -95 -335 -265 -415 -119 -55 -230 -67 -358 -38
-176 40 -308 141 -378 288 -38 80 -44 141 -25 260 28 167 0 123 -34 -54 -40
-211 146 -451 410 -531 88 -26 232 -31 320 -10 346 83 502 421 350 757 -137
303 -473 504 -844 505 -493 1 -848 -347 -823 -806 7 -133 36 -237 102 -370 63
-128 114 -198 227 -314 174 -176 449 -326 700 -381 231 -50 506 -40 736 26
383 111 707 419 807 769 l18 59 17 -43 c46 -120 152 -201 260 -201 105 0 245
95 238 160 -3 24 -7 25 -86 31 -113 9 -225 63 -324 158 l-71 67 2 95 c3 160
-23 319 -80 492 -34 103 -155 336 -226 437 -84 117 -308 345 -426 432 -355
262 -830 432 -1275 455 -67 3 -121 9 -120 12 2 4 48 48 103 97 535 485 899
1112 1040 1793 47 228 59 349 59 626 0 383 -40 637 -155 980 -128 379 -344
746 -603 1021 -75 80 -88 99 -101 150 -8 32 -15 99 -15 150 0 210 89 402 226
490 40 26 54 41 54 58 0 50 -103 86 -248 86 -194 0 -310 -73 -348 -220 -23
-91 -8 -187 48 -300 23 -47 44 -89 46 -94 3 -5 -22 11 -54 36 -82 62 -194 136
-290 191 l-81 47 -6 68 c-3 37 -1 103 3 148 27 263 142 477 317 590 28 19 58
43 67 55 30 44 -19 89 -134 124 -64 19 -262 28 -334 15z"/>
<path d="M9325 7590 c-133 -66 -76 -230 80 -230 83 0 147 51 149 119 2 102
-124 163 -229 111z"/>
<path d="M9623 7249 c-17 -5 -45 -22 -61 -39 -50 -49 -50 -111 0 -160 123
-123 352 24 238 153 -43 49 -108 66 -177 46z"/>
<path d="M9665 6797 c-76 -43 -93 -122 -37 -180 34 -37 65 -49 124 -48 119 0
189 111 121 192 -52 61 -137 76 -208 36z"/>
<path d="M11835 6622 c-175 -53 -304 -131 -440 -267 -160 -159 -241 -283 -510
-785 -253 -470 -343 -608 -505 -770 -142 -142 -232 -192 -410 -228 -36 -8 -13
-10 111 -11 465 -3 1186 132 1659 311 407 154 768 433 896 693 44 89 74 205
74 283 -1 117 -69 289 -159 402 -136 171 -302 313 -421 360 -77 31 -213 36
-295 12z"/>
<path d="M6275 6434 c-11 -2 -45 -9 -75 -15 -126 -25 -171 -77 -178 -203 -3
-66 0 -91 18 -135 40 -102 92 -169 334 -436 124 -138 171 -201 207 -281 32
-71 37 -130 14 -174 -25 -49 -9 -34 49 45 104 144 212 384 257 574 49 206 9
423 -98 522 -90 84 -146 101 -348 105 -88 1 -169 1 -180 -2z"/>
<path d="M12634 5320 c-31 -12 -64 -59 -64 -91 0 -36 49 -85 92 -91 133 -20
192 128 72 178 -37 16 -69 17 -100 4z"/>
<path d="M12394 5006 c-71 -31 -84 -98 -30 -152 30 -30 40 -34 86 -34 46 0 56
4 86 34 19 19 34 44 34 55 0 38 -30 82 -65 97 -42 17 -71 17 -111 0z"/>
<path d="M8237 4883 c-10 -46 -62 -119 -118 -163 -124 -98 -325 -174 -780
-294 -605 -160 -746 -216 -890 -353 -201 -192 -180 -327 84 -538 192 -154 389
-206 607 -160 229 48 491 227 679 464 289 365 487 828 445 1040 -8 38 -20 40
-27 4z"/>
<path d="M12012 4880 c-96 -22 -120 -131 -40 -180 103 -63 240 33 188 131 -20
37 -93 61 -148 49z"/>
<path d="M11230 4260 c-186 -40 -389 -131 -867 -388 -155 -84 -322 -171 -370
-193 -366 -169 -580 -206 -778 -135 l-20 8 20 -17 c38 -31 301 -154 436 -204
429 -158 874 -251 1201 -251 573 0 948 185 1043 514 14 48 16 86 12 200 -11
303 -89 428 -296 472 -92 19 -277 17 -381 -6z"/>
<path d="M2760 3603 c-56 -22 -79 -93 -41 -127 28 -25 76 -36 116 -25 64 18
86 86 41 128 -24 23 -87 36 -116 24z"/>
<path d="M2511 3344 c-86 -72 24 -173 129 -119 34 17 47 55 34 94 -20 55 -111
69 -163 25z"/>
<path d="M2530 3053 c-32 -12 -60 -47 -60 -75 0 -35 39 -78 72 -79 96 -5 142
35 124 107 -10 39 -86 65 -136 47z"/>
<path d="M11455 3028 c-64 -35 -83 -88 -49 -136 35 -50 100 -64 161 -35 49 23
69 70 49 116 -22 54 -109 84 -161 55z"/>
<path d="M10625 2951 c-60 -25 -78 -100 -35 -146 47 -50 135 -50 186 0 36 36
32 79 -10 121 -29 29 -41 34 -77 33 -24 0 -53 -4 -64 -8z"/>
<path d="M11036 2875 c-41 -22 -55 -44 -56 -87 0 -64 86 -114 155 -88 79 30
101 102 46 154 -37 35 -102 45 -145 21z"/>
<path d="M10530 629 c-87 -35 -89 -133 -4 -174 103 -49 218 48 158 134 -30 43
-101 61 -154 40z"/>
<path d="M5439 467 c-45 -30 -58 -67 -37 -110 42 -88 191 -83 222 7 21 58 -40
126 -114 126 -22 0 -51 -9 -71 -23z"/>
<path d="M4618 394 c-45 -24 -62 -79 -38 -125 28 -52 138 -66 188 -24 35 30
44 62 26 104 -23 55 -115 79 -176 45z"/>
<path d="M10195 317 c-46 -46 -46 -78 -1 -123 29 -29 41 -34 80 -34 111 0 162
79 98 151 -24 27 -37 33 -85 37 -54 4 -58 3 -92 -31z"/>
<path d="M5044 330 c-31 -12 -64 -59 -64 -90 0 -86 135 -129 204 -65 87 81
-23 202 -140 155z"/>
<path d="M9815 193 c-34 -9 -63 -33 -75 -64 -33 -77 73 -154 163 -120 93 36
86 154 -11 181 -39 10 -45 11 -77 3z"/>
</g>
</svg>
